<svg width="18" height="19" viewBox="0 0 18 19" fill="none" xmlns="http://www.w3.org/2000/svg">
<path d="M12.0092 8.82678L1.64881 1.09643C0.826073 0.498185 0.151489 0.937108 0.151489 2.07268V17.082C0.151489 18.2144 0.826073 18.6533 1.64881 18.0582L12.0092 10.3247C12.0092 10.3247 12.4105 10.0139 12.4105 9.5781C12.4105 9.14074 12.0092 8.82678 12.0092 8.82678ZM14.5349 0.204529H15.9733C16.7687 0.204529 17.4116 0.279505 17.4116 1.14173V18.0113C17.4116 18.8736 16.7687 18.9485 15.9733 18.9485H14.5349C13.7395 18.9485 13.0966 18.8736 13.0966 18.0113V1.14173C13.0966 0.279505 13.7395 0.204529 14.5349 0.204529Z" fill="#FDFDFD"/>
</svg>
