<svg width="16" height="19" viewBox="0 0 16 19" fill="none" xmlns="http://www.w3.org/2000/svg">
<path d="M3 0.21875C3.79565 0.21875 4.55871 0.544698 5.12132 1.12489C5.68393 1.70508 6 2.49199 6 3.3125V15.6875C6 16.508 5.68393 17.2949 5.12132 17.8751C4.55871 18.4553 3.79565 18.7812 3 18.7812C2.20435 18.7812 1.44129 18.4553 0.878679 17.8751C0.31607 17.2949 1.67671e-08 16.508 0 15.6875V3.3125C0 2.49199 0.31607 1.70508 0.878679 1.12489C1.44129 0.544698 2.20435 0.21875 3 0.21875V0.21875ZM13 0.21875C13.7956 0.21875 14.5587 0.544698 15.1213 1.12489C15.6839 1.70508 16 2.49199 16 3.3125V15.6875C16 16.508 15.6839 17.2949 15.1213 17.8751C14.5587 18.4553 13.7956 18.7812 13 18.7812C12.2044 18.7812 11.4413 18.4553 10.8787 17.8751C10.3161 17.2949 10 16.508 10 15.6875V3.3125C10 2.49199 10.3161 1.70508 10.8787 1.12489C11.4413 0.544698 12.2044 0.21875 13 0.21875Z" fill="#FFFBFB"/>
</svg>
